<svg width="20" height="26" viewBox="0 0 20 26" fill="none" xmlns="http://www.w3.org/2000/svg">
<path d="M9.99939 0.749695C7.44761 0.752723 5.00121 1.76775 3.19683 3.57214C1.39245 5.37652 0.377417 7.82292 0.37439 10.3747C0.37439 18.6103 9.12439 24.831 9.49695 25.0916C9.64429 25.1945 9.81967 25.2497 9.99939 25.2497C10.1791 25.2497 10.3545 25.1945 10.5018 25.0916C10.8744 24.831 19.6244 18.6103 19.6244 10.3747C19.6214 7.82292 18.6063 5.37652 16.8019 3.57214C14.9976 1.76775 12.5512 0.752722 9.99939 0.749695ZM10 6.87501C10.6923 6.87501 11.369 7.08028 11.9445 7.46487C12.5201 7.84945 12.9687 8.39608 13.2336 9.03562C13.4985 9.67516 13.5678 10.3789 13.4328 11.0578C13.2977 11.7368 12.9644 12.3604 12.4749 12.8499C11.9854 13.3394 11.3618 13.6727 10.6828 13.8078C10.0039 13.9428 9.30018 13.8735 8.66064 13.6086C8.0211 13.3437 7.47447 12.8951 7.08989 12.3195C6.7053 11.7439 6.50003 11.0672 6.50003 10.375C6.50002 9.91538 6.59054 9.46025 6.76643 9.0356C6.94231 8.61096 7.20012 8.22512 7.52513 7.90011C7.85013 7.5751 8.23598 7.31729 8.66062 7.14141C9.08527 6.96552 9.5404 6.875 10 6.87501Z" fill="#0088CF"/>
</svg>
